inDegrees=no
num_controls=7
num_derivatives=13
num_iterations=111
num_multipliers=7
num_parameters=0
num_slacks=7
num_states=26
objective=0.497122
objective_accelerations=0.032367
objective_balance=0.003287
objective_effort=0.035064
objective_height=0.420910
objective_ligament=0.005494
solver_duration=1273.140757
status=Solve_Succeeded
success=true
DataType=double
version=3
OpenSimVersion=4.5
endheader
time	/jointset/ground_pelvis/pelvis_tilt/value	/jointset/ground_pelvis/pelvis_tx/value	/jointset/ground_pelvis/pelvis_ty/value	/jointset/hip_r/hip_flexion_r/value	/jointset/hip_r/hip_adduction_r/value	/jointset/hip_r/hip_rotation_r/value	/jointset/back/lumbar_extension/value	/jointset/patellofemoral_r/patellar_flexion_r/value	/jointset/knee_r/knee_flexion_r/value	/jointset/knee_r/knee_adduction_r/value	/jointset/knee_r/knee_rotation_r/value	/jointset/ankle_r/ankle_angle_r/value	/jointset/subtalar_r/subtalar_angle_r/value	/jointset/ground_pelvis/pelvis_tilt/speed	/jointset/ground_pelvis/pelvis_tx/speed	/jointset/ground_pelvis/pelvis_ty/speed	/jointset/hip_r/hip_flexion_r/speed	/jointset/hip_r/hip_adduction_r/speed	/jointset/hip_r/hip_rotation_r/speed	/jointset/back/lumbar_extension/speed	/jointset/patellofemoral_r/patellar_flexion_r/speed	/jointset/knee_r/knee_flexion_r/speed	/jointset/knee_r/knee_adduction_r/speed	/jointset/knee_r/knee_rotation_r/speed	/jointset/ankle_r/ankle_angle_r/speed	/jointset/subtalar_r/subtalar_angle_r/speed	/forceset/tau_hip_flexion_r	/forceset/tau_hip_adduction_r	/forceset/tau_hip_rotation_r	/forceset/tau_knee_flexion_r	/forceset/tau_ankle_angle_r	/forceset/tau_subtalar_angle_r	/forceset/tau_lumbar_extension	lambda_cid13_p0	lambda_cid14_p0	lambda_cid14_p1	lambda_cid14_p2	lambda_cid14_p3	lambda_cid14_p4	lambda_cid14_p5	/jointset/ground_pelvis/pelvis_tilt/accel	/jointset/ground_pelvis/pelvis_tx/accel	/jointset/ground_pelvis/pelvis_ty/accel	/jointset/hip_r/hip_flexion_r/accel	/jointset/hip_r/hip_adduction_r/accel	/jointset/hip_r/hip_rotation_r/accel	/jointset/back/lumbar_extension/accel	/jointset/patellofemoral_r/patellar_flexion_r/accel	/jointset/knee_r/knee_flexion_r/accel	/jointset/knee_r/knee_adduction_r/accel	/jointset/knee_r/knee_rotation_r/accel	/jointset/ankle_r/ankle_angle_r/accel	/jointset/subtalar_r/subtalar_angle_r/accel	gamma_cid13_p0	gamma_cid14_p0	gamma_cid14_p1	gamma_cid14_p2	gamma_cid14_p3	gamma_cid14_p4	gamma_cid14_p5
0.5	-0.09723245393918405	0.05150763430014783	0.863442862652656	0.6930124696808485	-0.2302369918888264	-0.1330143527952152	-0.3176885270487248	0.6883821481910068	0.6883821481908708	0.04160180571350396	0.1745257510472442	0.2634891804116178	0.05644633456914451	-0.2607773835074758	-0.08983199827531027	-0.3266128856120203	1.4043540191412	-0.007962207838117534	0.2560133606114852	-0.6016873887140513	1.665172084725641	1.665172084725641	-0.2790858682277764	3.812151862450304e-05	0.6110599292675178	0.1637707765822347	-0.0747797896744072	-0.01875362940993835	0.008292245529132748	-0.3406583365895724	0.06397976206005307	-0.01043112608360162	0.1350517016843116	-31.99233549291348	-21.69104117079299	-4.414984103931308	-3.305976005054713	3.340539707504389	-670.8448913674417	59.89918134009731	0.06468806589003111	0.2835549628792538	-0.3430203079991754	-0.8719293223300707	-0.05172054203258748	-0.5601313661691805	1.317149669586592	-1.14611370438194	-1.14611370438194	0.3841653109823157	0.003210121955849366	-0.4686603708405188	-0.06188087197271113	-1.087989307962119e-07	-1.57405454815527e-07	5.208564306813005e-07	-1.239041095107343e-06	4.157817456558366e-08	-2.132283116986647e-07	8.3815688265489e-07
0.51	-0.09983656934545389	0.0506235858655795	0.8601603139843922	0.7070102078469198	-0.2303199618124999	-0.1304810500030249	-0.3236388765669222	0.7049740004505678	0.7049740004504756	0.03883259985586356	0.1745261785771736	0.2695751568278637	0.05807953828737354	-0.2600117080557225	-0.08697014286963407	-0.3298224753160867	1.395001585251246	-0.008636240115125244	0.250664514277688	-0.588307772750554	1.652957943142297	1.652957943142297	-0.2747112568381667	3.654086794954339e-05	0.606044411555807	0.1628331907100298	-0.08001418094820628	-0.01692778030492235	0.008951015803343546	-0.3434640653207719	0.05966232193200588	-0.009852948274581922	0.1398615409728214	-31.04378018559472	-23.22081147990677	-4.550667309385647	-3.148492663845591	3.977166329469234	-674.0371719640744	59.66260587983126	0.08759307953312628	0.2886421263246393	-0.2988155193968131	-0.9957218467225738	-0.07607893013432512	-0.5198455551092529	1.359578885956948	-1.295107085458077	-1.295107085458094	0.470720278296025	-0.003684796604622166	-0.5316476276564041	-0.1152833893047679	-9.200320860306835e-08	-1.161835266079821e-07	5.717878575536764e-07	-9.273654497461809e-07	1.068750460402316e-08	-1.673986937134665e-07	7.322155041969686e-07
0.52	-0.1024320108382629	0.04976838424445051	0.8568478919755306	0.7209086573892124	-0.2304098389308636	-0.1280007525317975	-0.3294531876602394	0.721436502754265	0.7214365027542173	0.03610846235718838	0.174526221772995	0.2756082480357286	0.05970224895798843	-0.2590426008153639	-0.08406263558744018	-0.3325875537316136	1.38449629438551	-0.009343646776110149	0.2454122964189193	-0.5744797037380319	1.639302093553055	1.639302093553055	-0.270072196434728	-3.874530374361885e-05	0.6004828875912946	0.1616721670594093	-0.08524857222200831	-0.01510193119990968	0.009609786077574942	-0.3462697940519723	0.05534488180395734	-0.009274770465567947	0.1446713802613294	-30.08713953414753	-24.7549633888301	-4.684630264098696	-2.994125517224612	4.600082006202343	-677.3033591386326	59.48921111661787	0.1053744236111042	0.2926853381827898	-0.2541180502912966	-1.102500717486666	-0.05839541882802247	-0.5408056711634859	1.40684027939154	-1.434455305561555	-1.434455305561551	0.4370551137480932	-0.01153098224779141	-0.5778616214008081	-0.1065684276558254	-6.668911575261904e-08	-3.38761418817967e-08	7.638289979691754e-07	-3.230179373430793e-07	-6.299782530668434e-08	-6.994688882764426e-08	5.886840230803978e-07
0.53	-0.1050168341236982	0.04894249023391343	0.8535100622823435	0.7346965477894825	-0.230506491959495	-0.1255743200736208	-0.3351269149417975	0.7377554956603872	0.737755495660344	0.03343002059872259	0.1745261329824781	0.2815832929976853	0.06131295186992907	-0.2578843949501667	-0.08110680745387304	-0.334900261831211	1.372886000418038	-0.009994946883838576	0.2399072159544332	-0.5601977246466899	1.624267979004554	1.624267979004556	-0.2655599204550029	3.349059697764322e-06	0.5944466340675677	0.1604284916909758	-0.09033200983882765	-0.01344441798971766	0.01028727890671815	-0.3493592367787908	0.05147284561744574	-0.008817923757729825	0.1493762946552247	-29.12460049383307	-26.15515000494334	-4.856002920753164	-2.824459783903209	5.11090247583667	-680.6331803929672	59.29914742291179	0.126692626018114	0.2984150706134765	-0.2081324806195374	-1.219660824061292	-0.06962587845011199	-0.550464135504824	1.449080913037872	-1.572155150983066	-1.572155150982804	0.4668704245064849	0.009447473900853648	-0.628450490357272	-0.1391204038971274	-4.115196985070284e-08	4.999474225455776e-08	9.783188334177904e-07	2.911860731224888e-07	-1.401161764832293e-07	2.522818794655583e-08	4.74918512160916e-07
0.54	-0.107588945558873	0.04814643120864599	0.8501514484499951	0.7483624618325404	-0.2306098837035468	-0.1232019594003701	-0.3406557815946357	0.7539172942967284	0.7539172942966875	0.03079841291693557	0.1745259387012477	0.2874955867699049	0.06291004736569332	-0.2565002307632073	-0.07809563853351047	-0.3367443815638342	1.360101022943212	-0.01069138985976085	0.2345979394334008	-0.5455075779940552	1.607863239596505	1.607863239596509	-0.2607053810984074	-5.984344643041584e-05	0.5879326496438957	0.158950683824142	-0.09541544745564721	-0.01178690477952411	0.01096477173582864	-0.3524486795056086	0.04760080943093537	-0.008361077049887046	0.1540812090491195	-28.15690505540807	-27.56148247771441	-5.027843223623761	-2.655414035265683	5.620792724679838	-684.058247754704	59.13403032623552	0.1505660879635503	0.3037534955418729	-0.1604003768964342	-1.337437418957401	-0.06742399246679112	-0.5016448824727306	1.488473791650089	-1.708580277471096	-1.708580277471098	0.5055077891221674	-0.03258835616169709	-0.6734078013898069	-0.1533949273358926	-1.536804184929136e-08	1.355954555255673e-07	1.217645522945598e-06	9.162951452741905e-07	-2.210327639538923e-07	1.17884331490876e-07	3.940855640126822e-07
0.55	-0.1101462539436215	0.04738069909045235	0.8467767330730203	0.7618950784450297	-0.2307199436304134	-0.1208840342337772	-0.3460357508503443	0.769908423832809	0.7699084238328114	0.02821456113540717	0.1745257784254381	0.2933405656298115	0.06449199707017154	-0.2549286522882616	-0.0750462330902492	-0.3381190249602051	1.346241304675382	-0.01132503653152395	0.2290078696227095	-0.5304350058201881	1.590145294876018	1.590145294876019	-0.2560264777693787	1.582672558275118e-05	0.5809868014255677	0.1574040631617163	-0.1002634133181883	-0.01024223221026914	0.0115653227254013	-0.3556644587632979	0.04392373155242111	-0.007882953258377035	0.1585690479335574	-27.1851069794728	-28.90302298601055	-5.176253469723114	-2.493354160294291	6.121374503018702	-687.4299951271021	59.03149681264647	0.1653861272636691	0.3061638371489095	-0.1140123055581174	-1.43736861901061	-0.06168813441072674	-0.5845099792784415	1.524339029374007	-1.836007220053747	-1.836007220054058	0.4550968418795192	0.02610824929446583	-0.7166595192682635	-0.1602148130514157	1.353020559539507e-09	1.869117000332505e-07	1.351000198599677e-06	1.286717693818195e-06	-2.687545465512912e-07	1.726646494186435e-07	3.563117673987987e-07
